<svg xmlns="http://www.w3.org/2000/svg" viewBox="0 0 1000 60" width="1000" height="60" role="img" aria-label="divider">
<defs>
<filter id="grain" x="0" y="0" width="100%" height="100%">
  <feTurbulence type="fractalNoise" baseFrequency="0.85" numOctaves="3" seed="7" result="n"/>
  <feColorMatrix type="saturate" values="0" in="n" result="g"/>
  <feComponentTransfer in="g"><feFuncA type="table" tableValues="0 0.16"/></feComponentTransfer>
</filter>
<filter id="stain" x="0" y="0" width="100%" height="100%">
  <feTurbulence type="fractalNoise" baseFrequency="0.008 0.02" numOctaves="4" seed="3" result="n"/>
  <feColorMatrix type="matrix" in="n" values="0 0 0 0 1  0 0 0 0 1  0 0 0 0 1  0 0 0 -1.3 0.62"/>
</filter>
<filter id="rough" x="-5%" y="-20%" width="110%" height="140%">
  <feTurbulence type="turbulence" baseFrequency="0.045" numOctaves="2" seed="11" result="t"/>
  <feDisplacementMap in="SourceGraphic" in2="t" scale="7" xChannelSelector="R" yChannelSelector="G"/>
</filter>
<filter id="paint" x="-6%" y="-25%" width="112%" height="150%">
  <feTurbulence type="fractalNoise" baseFrequency="0.06" numOctaves="2" seed="4" result="t"/>
  <feDisplacementMap in="SourceGraphic" in2="t" scale="5" xChannelSelector="R" yChannelSelector="G" result="d"/>
  <feTurbulence type="fractalNoise" baseFrequency="0.32" numOctaves="2" seed="9" result="wear"/>
  <feColorMatrix in="wear" type="matrix" values="0 0 0 0 0  0 0 0 0 0  0 0 0 0 0  0 0 0 -18 13.5" result="wearA"/>
  <feComposite in="d" in2="wearA" operator="in"/>
</filter>
<filter id="overspray" x="-10%" y="-40%" width="120%" height="180%">
  <feGaussianBlur stdDeviation="9"/>
</filter>
<clipPath id="b"><path d="M40.0,27.5 L55.3,29.0 L70.7,27.8 L86.0,28.1 L101.3,27.4 L116.7,27.7 L132.0,28.3 L147.3,28.4 L162.7,27.2 L178.0,26.3 L193.3,28.5 L208.7,27.9 L224.0,27.5 L239.3,26.3 L254.7,27.1 L270.0,27.9 L285.3,28.6 L300.7,26.2 L316.0,28.0 L331.3,27.4 L346.7,27.2 L362.0,26.3 L377.3,26.7 L392.7,25.8 L408.0,25.4 L423.3,26.5 L438.7,27.3 L454.0,25.3 L469.3,25.6 L484.7,24.6 L500.0,24.4 L515.3,25.6 L530.7,25.0 L546.0,24.9 L561.3,25.7 L576.7,24.2 L592.0,24.6 L607.3,24.9 L622.7,24.7 L638.0,22.9 L653.3,22.7 L668.7,23.8 L684.0,22.8 L699.3,23.3 L714.7,22.9 L730.0,23.5 L745.3,23.7 L760.7,22.9 L776.0,23.8 L791.3,24.4 L806.7,23.7 L822.0,23.9 L837.3,24.2 L852.7,26.2 L868.0,24.6 L883.3,25.3 L898.7,26.3 L914.0,25.3 L929.3,25.2 L944.7,26.2 L960.0,25.3 L960.0,28.9 L944.7,29.7 L929.3,28.7 L914.0,27.7 L898.7,28.5 L883.3,28.4 L868.0,29.0 L852.7,29.2 L837.3,28.9 L822.0,30.1 L806.7,28.9 L791.3,31.2 L776.0,30.8 L760.7,30.2 L745.3,31.5 L730.0,31.2 L714.7,31.8 L699.3,32.5 L684.0,32.1 L668.7,32.7 L653.3,33.5 L638.0,34.2 L622.7,35.9 L607.3,35.4 L592.0,36.2 L576.7,35.8 L561.3,37.2 L546.0,36.3 L530.7,36.9 L515.3,36.1 L500.0,36.8 L484.7,37.5 L469.3,36.8 L454.0,37.6 L438.7,38.7 L423.3,38.4 L408.0,38.5 L392.7,38.2 L377.3,38.7 L362.0,37.7 L346.7,38.9 L331.3,39.0 L316.0,38.7 L300.7,37.3 L285.3,38.7 L270.0,38.2 L254.7,37.2 L239.3,37.3 L224.0,37.3 L208.7,37.4 L193.3,38.0 L178.0,36.1 L162.7,35.1 L147.3,36.4 L132.0,35.8 L116.7,35.3 L101.3,34.5 L86.0,34.7 L70.7,33.4 L55.3,33.0 L40.0,31.2 Z"/></clipPath></defs>
<g filter="url(#rough)">
  <path d="M40.0,27.5 L55.3,29.0 L70.7,27.8 L86.0,28.1 L101.3,27.4 L116.7,27.7 L132.0,28.3 L147.3,28.4 L162.7,27.2 L178.0,26.3 L193.3,28.5 L208.7,27.9 L224.0,27.5 L239.3,26.3 L254.7,27.1 L270.0,27.9 L285.3,28.6 L300.7,26.2 L316.0,28.0 L331.3,27.4 L346.7,27.2 L362.0,26.3 L377.3,26.7 L392.7,25.8 L408.0,25.4 L423.3,26.5 L438.7,27.3 L454.0,25.3 L469.3,25.6 L484.7,24.6 L500.0,24.4 L515.3,25.6 L530.7,25.0 L546.0,24.9 L561.3,25.7 L576.7,24.2 L592.0,24.6 L607.3,24.9 L622.7,24.7 L638.0,22.9 L653.3,22.7 L668.7,23.8 L684.0,22.8 L699.3,23.3 L714.7,22.9 L730.0,23.5 L745.3,23.7 L760.7,22.9 L776.0,23.8 L791.3,24.4 L806.7,23.7 L822.0,23.9 L837.3,24.2 L852.7,26.2 L868.0,24.6 L883.3,25.3 L898.7,26.3 L914.0,25.3 L929.3,25.2 L944.7,26.2 L960.0,25.3 L960.0,28.9 L944.7,29.7 L929.3,28.7 L914.0,27.7 L898.7,28.5 L883.3,28.4 L868.0,29.0 L852.7,29.2 L837.3,28.9 L822.0,30.1 L806.7,28.9 L791.3,31.2 L776.0,30.8 L760.7,30.2 L745.3,31.5 L730.0,31.2 L714.7,31.8 L699.3,32.5 L684.0,32.1 L668.7,32.7 L653.3,33.5 L638.0,34.2 L622.7,35.9 L607.3,35.4 L592.0,36.2 L576.7,35.8 L561.3,37.2 L546.0,36.3 L530.7,36.9 L515.3,36.1 L500.0,36.8 L484.7,37.5 L469.3,36.8 L454.0,37.6 L438.7,38.7 L423.3,38.4 L408.0,38.5 L392.7,38.2 L377.3,38.7 L362.0,37.7 L346.7,38.9 L331.3,39.0 L316.0,38.7 L300.7,37.3 L285.3,38.7 L270.0,38.2 L254.7,37.2 L239.3,37.3 L224.0,37.3 L208.7,37.4 L193.3,38.0 L178.0,36.1 L162.7,35.1 L147.3,36.4 L132.0,35.8 L116.7,35.3 L101.3,34.5 L86.0,34.7 L70.7,33.4 L55.3,33.0 L40.0,31.2 Z" fill="#111111"/>
  <g clip-path="url(#b)"><rect x="60" y="34.0" width="68" height="0.9" fill="#fff" opacity="0.55"/><rect x="851" y="33.3" width="148" height="0.9" fill="#fff" opacity="0.55"/><rect x="744" y="28.0" width="93" height="0.9" fill="#fff" opacity="0.55"/><rect x="337" y="33.4" width="44" height="0.9" fill="#fff" opacity="0.55"/><rect x="169" y="33.6" width="137" height="0.9" fill="#fff" opacity="0.55"/><rect x="625" y="33.7" width="103" height="0.9" fill="#fff" opacity="0.55"/><rect x="728" y="28.4" width="148" height="0.9" fill="#fff" opacity="0.55"/><rect x="116" y="28.4" width="109" height="0.9" fill="#fff" opacity="0.55"/><rect x="695" y="28.2" width="122" height="0.9" fill="#fff" opacity="0.55"/></g>
</g>
<circle cx="931.0" cy="33.7" r="1.17" fill="#FF2E88"/><circle cx="927.4" cy="24.4" r="0.41" fill="#FF2E88"/><circle cx="935.6" cy="26.3" r="0.73" fill="#FF2E88"/><circle cx="939.2" cy="25.8" r="1.08" fill="#FF2E88"/><circle cx="940.2" cy="15.8" r="0.40" fill="#FF2E88"/><circle cx="928.0" cy="24.7" r="2.13" fill="#FF2E88"/><circle cx="928.9" cy="25.9" r="0.44" fill="#FF2E88"/><circle cx="931.1" cy="13.5" r="0.84" fill="#FF2E88"/><circle cx="921.3" cy="41.7" r="0.48" fill="#FF2E88"/><circle cx="928.9" cy="22.8" r="2.02" fill="#FF2E88"/><circle cx="927.2" cy="18.8" r="1.51" fill="#FF2E88"/><circle cx="923.7" cy="27.4" r="2.06" fill="#FF2E88"/><circle cx="934.5" cy="23.4" r="0.68" fill="#FF2E88"/><circle cx="934.2" cy="25.4" r="1.17" fill="#FF2E88"/><circle cx="926.3" cy="23.8" r="1.04" fill="#FF2E88"/><circle cx="920.6" cy="33.6" r="1.03" fill="#FF2E88"/><circle cx="914.9" cy="20.7" r="1.42" fill="#FF2E88"/><circle cx="937.4" cy="20.4" r="1.84" fill="#FF2E88"/><circle cx="923.1" cy="18.4" r="1.65" fill="#FF2E88"/><circle cx="949.6" cy="18.0" r="0.70" fill="#FF2E88"/><circle cx="928.6" cy="22.3" r="1.37" fill="#FF2E88"/><circle cx="924.4" cy="41.0" r="0.40" fill="#FF2E88"/><circle cx="933.7" cy="23.1" r="1.83" fill="#FF2E88"/><circle cx="929.7" cy="26.1" r="0.64" fill="#FF2E88"/><circle cx="929.1" cy="27.9" r="0.40" fill="#FF2E88"/><circle cx="908.8" cy="14.8" r="0.40" fill="#FF2E88"/><circle cx="927.2" cy="17.7" r="1.70" fill="#FF2E88"/><circle cx="904.8" cy="25.5" r="1.04" fill="#FF2E88"/>
<circle cx="70.7" cy="38.8" r="0.40" fill="#111111"/><circle cx="75.5" cy="35.5" r="0.72" fill="#111111"/><circle cx="74.6" cy="32.4" r="0.52" fill="#111111"/><circle cx="54.3" cy="31.8" r="0.40" fill="#111111"/><circle cx="72.5" cy="36.9" r="1.38" fill="#111111"/><circle cx="72.0" cy="31.7" r="1.29" fill="#111111"/><circle cx="70.9" cy="32.3" r="1.12" fill="#111111"/><circle cx="69.1" cy="29.2" r="1.16" fill="#111111"/><circle cx="78.5" cy="29.2" r="0.80" fill="#111111"/><circle cx="62.9" cy="33.8" r="0.43" fill="#111111"/><circle cx="50.5" cy="36.0" r="0.55" fill="#111111"/><circle cx="58.1" cy="31.8" r="0.44" fill="#111111"/><circle cx="85.6" cy="28.0" r="0.60" fill="#111111"/><circle cx="60.9" cy="33.7" r="0.64" fill="#111111"/>
</svg>